<svg xmlns="http://www.w3.org/2000/svg" xmlns:xlink="http://www.w3.org/1999/xlink" version="1.1" x="0px" y="0px" viewBox="0 0 100 125" enable-background="new 0 0 100 100" xml:space="preserve"><path fill="#000000" d="M47.1,46.1c0,0,0.8-0.8,1.3-1.5c0.4-0.6,3.5-0.7,5.1-1.5c1.7-0.7,7.6-5.1,7.6-5.1l0.2-3.5  c0,0-0.5-2.6-1.3-5.2s-0.9-8.6-1.4-10.2c-0.4-1.6,0.3-4,1-4.8s1.7-1.3,2.8-1.9c1.2-0.6,3.6,0.6,4.4,1.4c0.8,0.7,2.2,1.8,3.5,2.4  s3.1,2,3.1,2l1.7-0.1c0,0,0.7-1.2,0.9-1.6c0.2-0.4,2-0.5,3.8,0c1.8,0.5,3.5,3.9,3.5,3.9s1.7-0.7,2.5-0.8s4.1-1.9,6-1.9  s2.8,1.6,2.9,2.4c0.1,0.8-1.3,4.2-1.3,4.2s0.3,1.9,0,3.1c-0.3,1.3-3.4,5.6-3.7,6.1s-1,4.5-2.2,4.8c-1.2,0.3-1.5,2.8-2.4,4.9  c-0.9,2.1-3.1,2.3-3.1,2.3s-2,4-2.8,4.5c-0.8,0.5-4.3,5.7-5.9,7.2c-1.6,1.6-2.4,1.6-2.4,1.6s-0.9,1.4-1.2,1.8  c-0.2,0.4-2.2,2-4.1,3.4c-1.9,1.4-3.1-0.4-3.1-0.4s-2.4,2.6-3.3,3c-0.8,0.4-2.5,1.8-3.4,2.7c-0.8,0.9-1.9,0.6-2.8,0.6s-4.5,1-6.4,2  s-8.4,2.9-8.4,2.9s-2.6,1.7-4.1,2.9s-9.2,4.5-10.5,4.9s-3.3,2.3-4.3,2.6c-1,0.3-3.1,0.5-3.1,0.5s-1.8,1.3-2.2,1.3s-1,0.3-1.5,0.5  c-0.4,0.2-1.6-0.2-2.3-0.5c-0.7-0.3-3.4-4-3.4-4L8,82.5c0,0-2.5-3.5-3.9-7.5s1.8-4,3.1-4.1s2.3,2.4,2.9,3.4c0.5,0.9,2,2.2,2.3,2.2  s1.2,0.5,1.2,0.5v-1c0,0,1-0.2,2.7-0.6s4.1-1.9,4.1-1.9s1.9-1.9,4.3-2.7c2.4-0.8,6.5-2.9,6.5-2.9s1.2-2.3,2.8-3.3  c1.7-0.9,8.7-4.2,8.7-4.2s-2.1-2.3-2.3-2.9S37,54.6,36,53.5c-1-1-4.6-3.3-4.6-3.3h-1.5c0,0-1.9,4.9-2.8,5.5s-1.4,6.6-1.4,6.6  l-1.3,0.8c0,0-0.5,1.3,0.1,1.9c0.6,0.6,0.5,4.1,0.5,4.1s-2.4,1.2-3.3,1.5s-2.9-0.1-2.9-0.1l-0.4-0.6c0,0-4.1,1.5-6.4,1.8  s-3.8-1.3-4.7-2.6c-1-1.3,1.8-1.8,3.8-2.3c2-0.5,5.2-2.8,5.2-2.8l-0.7-1l1.5-1.5c0,0-0.8-0.3-1.5-1.1c-0.7-0.8-1.5-2-1.5-2  s3.4-4.7,4.7-6c1.3-1.3,1.3-4.7,2.5-8.5c1.1-3.8,3.4-6.2,4.4-6.7c1-0.5,1.5-1,2.6-1c1.1,0,5.6,2,10.1,4.7s7,4.9,7,4.9L47.1,46.1z   M78.5,31.9c0.1,0.4,0.5,1.3,0.6,1.6c0.1,0.3,0.6,0.3,1.6,0c0.9-0.3,0.9-2.5,1.9-3.6c0.9-1,2.4-3.3,2.4-3.3L83,27.4  c0,0-1.1-0.3-1.7,0.2C81,27.9,78.4,31.5,78.5,31.9z M71.1,23.2c0,0-1.6-0.1-2.1-0.5c-0.5-0.4-3-1.8-3-1.8s0.8,2.2,0.8,2.8  c0,0.6-0.6,2.5,0,2.9c0.6,0.4,1,0.3,1.7,0.9c0.7,0.6,1.3,2.5,1.3,2.5h1.3c0,0,0.5-1.4,0.6-1.8c0.1-1.1-1.7-1.1-0.8-3  C71.6,24,71.1,23.2,71.1,23.2z"/>
</svg>