<svg xmlns="http://www.w3.org/2000/svg" xmlns:xlink="http://www.w3.org/1999/xlink" version="1.1" x="0px" y="0px" viewBox="0 0 100 125" enable-background="new 0 0 100 100" xml:space="preserve"><g><path d="M41.449,58.293c1.508,4.523,7.539,4.523,6.031-3.016c-3.016-9.047-1.508-21.109-7.539-19.601   c-4.523,1.508-3.016,4.523-3.016,6.031C38.433,47.738,38.433,47.738,41.449,58.293z"/><path d="M68.588,47.738c0-6.031,0-25.632,0-30.155c0-6.031,0-10.554-4.523-10.554c-4.523,0-4.523,4.523-4.523,10.554   s0,22.617,0,24.124C59.542,41.707,64.065,44.723,68.588,47.738z"/><path d="M47.48,40.2c1.508,10.554,1.508,15.078,3.016,18.093c1.508,3.016,4.523,3.016,6.031,0c-9.047-6.031-7.539-18.093,0-16.585   c0-4.523,0-9.047-4.523-9.047C45.972,32.661,47.48,37.184,47.48,40.2z"/><path d="M67.081,83.925c1.508-6.031,4.523-7.539,4.523-15.078c0-10.554,0-15.078-6.031-19.601   c-4.523-3.016-9.047-7.539-12.062-4.523c-3.016,4.523,3.016,12.062,7.539,13.57V59.8c-3.016,3.016-7.539,9.047-4.523,19.601h-3.016   c-1.508-10.554,0-13.57,4.523-19.601c0,0-4.523,6.031-9.047,0c0,4.523-6.031,4.523-7.539,1.508   c-3.016,4.523-9.047,4.523-12.062-7.539c0,4.523,1.508,7.539,3.016,13.57c1.508,9.047,3.016,13.57,4.523,16.585   c3.016,4.523,3.016,6.031,3.016,9.047h25.632C65.573,89.956,65.573,88.448,67.081,83.925z"/><path d="M36.925,61.308c4.523-1.508,1.508-4.523,0-10.554c-1.508-4.523-1.508-10.554-6.031-9.047   c-3.016,1.508-3.016,4.523-1.508,7.539C30.894,52.262,33.91,62.816,36.925,61.308z"/></g></svg>