<svg xmlns="http://www.w3.org/2000/svg" xmlns:xlink="http://www.w3.org/1999/xlink" xmlns:sketch="http://www.bohemiancoding.com/sketch/ns" viewBox="0 0 100 125" version="1.1" x="0px" y="0px"><title>eye-fill 199</title><desc>Created with Sketch.</desc><g stroke="none" stroke-width="1" fill="none" fill-rule="evenodd" sketch:type="MSPage"><path d="M60.2272727,19 L53.3238636,19 L46.4204545,19 L39.5170455,19 L32.6136364,19 L32.6136364,25.9034091 L25.7102273,25.9034091 L25.7102273,32.8068182 L18.8068182,32.8068182 L18.8068182,39.7102273 L11.9034091,39.7102273 L11.9034091,46.6136364 L5,46.6136364 L5,53.5170455 L11.9034091,53.5170455 L11.9034091,60.4204545 L18.8068182,60.4204545 L18.8068182,67.3238636 L25.7102273,67.3238636 L25.7102273,60.4204545 L32.6136364,60.4204545 L39.5170455,60.4204545 L39.5170455,67.3238636 L46.4204545,67.3238636 L46.4204545,60.4204545 L53.3238636,60.4204545 L53.3238636,67.3238636 L60.2272727,67.3238636 L60.2272727,60.4204545 L67.1306818,60.4204545 L74.0340909,60.4204545 L74.0340909,67.3238636 L80.9375,67.3238636 L80.9375,60.4204545 L87.8409091,60.4204545 L87.8409091,53.5170455 L94.7443182,53.5170455 L94.7443182,46.6136364 L87.8409091,46.6136364 L87.8409091,39.7102273 L80.9375,39.7102273 L80.9375,32.8068182 L74.0340909,32.8068182 L74.0340909,25.9034091 L67.1306818,25.9034091 L67.1306818,19 L60.2272727,19 Z M60.2272727,39.7102273 L67.1306818,39.7102273 L67.1306818,46.6136364 L60.2272727,46.6136364 L60.2272727,39.7102273 Z M32.6136364,39.7102273 L39.5170455,39.7102273 L39.5170455,46.6136364 L32.6136364,46.6136364 L32.6136364,39.7102273 Z M80.9375,74.2272727 L87.8409091,74.2272727 L87.8409091,67.3238636 L80.9375,67.3238636 L80.9375,74.2272727 Z M60.2272727,74.2272727 L67.1306818,74.2272727 L67.1306818,67.3238636 L60.2272727,67.3238636 L60.2272727,74.2272727 Z M32.6136364,67.3238636 L32.6136364,74.2272727 L25.7102273,74.2272727 L25.7102273,81.1306818 L32.6136364,81.1306818 L32.6136364,74.2272727 L39.5170455,74.2272727 L39.5170455,67.3238636 L32.6136364,67.3238636 Z M11.9034091,74.2272727 L18.8068182,74.2272727 L18.8068182,67.3238636 L11.9034091,67.3238636 L11.9034091,74.2272727 Z M87.8409091,81.1306818 L94.7443182,81.1306818 L94.7443182,74.2272727 L87.8409091,74.2272727 L87.8409091,81.1306818 Z M67.1306818,81.1306818 L74.0340909,81.1306818 L74.0340909,74.2272727 L67.1306818,74.2272727 L67.1306818,81.1306818 Z M5,81.1306818 L11.9034091,81.1306818 L11.9034091,74.2272727 L5,74.2272727 L5,81.1306818 Z" fill="#000000" sketch:type="MSShapeGroup"/></g></svg>