<svg xmlns="http://www.w3.org/2000/svg" xmlns:xlink="http://www.w3.org/1999/xlink" version="1.1" x="0px" y="0px" viewBox="0 0 100 125" style="enable-background:new 0 0 100 100;" xml:space="preserve"><g><path d="M50,4.9C25.1,4.9,4.9,25.1,4.9,50S25.1,95.1,50,95.1S95.1,74.9,95.1,50S74.9,4.9,50,4.9z M50,91   C27.3,91,9,72.7,9,50S27.3,9,50,9s41,18.4,41,41S72.7,91,50,91z"/><path d="M63.3,56.3c-1.2,0.1-1.9,1.2-2.7,2.1c-2.1,2-5.3,2.2-8.1,2.1c-3.5-0.2-7-0.8-10.4-1.8   c-3.1-0.9-6.1-2.1-9.3-2.4c-1.1-0.1-2.4,0.1-2.8,1.1c-0.5,1.2,0.9,2.3,2.1,2.9c5.6,1.7,9,7,14.5,8.8c2.1,0.7,4.3,0.9,6.5,1   c2.9,0.1,6,0.1,8.4-1.6c2.5-1.7,3.7-4.8,4.2-7.7c0.2-1,0.3-2-0.1-2.9S64.3,56.2,63.3,56.3z"/><path d="M67.2,27.9c-5.3,0-9.7,4.3-9.7,9.7c0,5.3,4.3,9.7,9.7,9.7s9.7-4.3,9.7-9.7C76.9,32.2,72.5,27.9,67.2,27.9z    M67.2,43.1c-3.1,0-5.6-2.5-5.6-5.6s2.5-5.6,5.6-5.6c3.1,0,5.6,2.5,5.6,5.6S70.3,43.1,67.2,43.1z"/><path d="M42.5,37.5c0-5.3-4.3-9.7-9.7-9.7s-9.7,4.3-9.7,9.7c0,5.3,4.3,9.7,9.7,9.7S42.5,42.9,42.5,37.5z M27.3,37.5   c0-3.1,2.5-5.6,5.6-5.6c3.1,0,5.6,2.5,5.6,5.6s-2.5,5.6-5.6,5.6C29.7,43.1,27.3,40.6,27.3,37.5z"/><circle cx="32.8" cy="37.5" r="2.7"/><circle cx="67.2" cy="37.5" r="2.7"/></g></svg>